PathFileType	4	(X/Y/Z)	/Users/itak/Documents/Research/Walk-IL/dataset/trc/00551_00009.trc
DataRate	CameraRate	NumFrames	NumMarkers	Units	OrigDataRate	OrigDataStartFrame	OrigNumFrames
100.000000	100.000000	4	53	mm	100.000000	427	489
Frame#	Time	RPSI			LPSI			L3			STRN			T10			C7			CLAV			RBAK			LBAK			LSHO			LUPA			LAEL			LAOL			LWTS			LWPS			LFRA			LIFD			LHPS			LHTS			RSHO			RUPA			RAEL			RAOL			RWTS			RWPS			RFRA			RIFD			RHTS			RHPS			RBHD			LFHD			RFHD			LBHD			LHIP			RHIP			RASI			LASI			LKNE			LTHI			LANK			LTIP			LTOE			LMT1			LMT5			LHEE			RKNE			RTHI			RANK			RTIP			RTOE			RMT1			RMT5			RHEE			
		X1	Y1	Z1	X2	Y2	Z2	X3	Y3	Z3	X4	Y4	Z4	X5	Y5	Z5	X6	Y6	Z6	X7	Y7	Z7	X8	Y8	Z8	X9	Y9	Z9	X10	Y10	Z10	X11	Y11	Z11	X12	Y12	Z12	X13	Y13	Z13	X14	Y14	Z14	X15	Y15	Z15	X16	Y16	Z16	X17	Y17	Z17	X18	Y18	Z18	X19	Y19	Z19	X20	Y20	Z20	X21	Y21	Z21	X22	Y22	Z22	X23	Y23	Z23	X24	Y24	Z24	X25	Y25	Z25	X26	Y26	Z26	X27	Y27	Z27	X28	Y28	Z28	X29	Y29	Z29	X30	Y30	Z30	X31	Y31	Z31	X32	Y32	Z32	X33	Y33	Z33	X34	Y34	Z34	X35	Y35	Z35	X36	Y36	Z36	X37	Y37	Z37	X38	Y38	Z38	X39	Y39	Z39	X40	Y40	Z40	X41	Y41	Z41	X42	Y42	Z42	X43	Y43	Z43	X44	Y44	Z44	X45	Y45	Z45	X46	Y46	Z46	X47	Y47	Z47	X48	Y48	Z48	X49	Y49	Z49	X50	Y50	Z50	X51	Y51	Z51	X52	Y52	Z52	X53	Y53	Z53	

428	4.27	1336.365966796875	1009.90185546875	318.4117736816406	1353.182983398438	1014.971130371094	185.7500457763672	1343.34521484375	1102.522094726562	247.7088470458984	1567.377319335938	1303.903686523438	261.1337890625	1328.657348632812	1228.156127929688	245.1903076171875	1360.64404296875	1503.2705078125	261.0457763671875	1541.154541015625	1414.05810546875	260.8781433105469	1293.178833007812	1374.927734375	340.9404907226562	1334.800537109375	1449.973022460938	165.1209411621094	1436.183715820312	1480.627075195312	92.92458343505859	1449.785766601562	1355.341918945312	12.91068935394287	1519.904174804688	1142.947143554688	-4.376132965087891	1430.478881835938	1113.26806640625	33.96914672851562	1669.453735351562	939.5416259765625	68.62591552734375	1645.138305664062	903.2482299804688	-7.004001140594482	1566.04443359375	1066.489624023438	-4.015235424041748	1721.283081054688	776.9776611328125	71.32785797119141	1670.706176757812	849.240966796875	5.080544948577881	1711.002319335938	871.1854248046875	55.39622116088867	1413.949951171875	1468.151977539062	419.3076477050781	1393.893798828125	1402.562744140625	484.2424926757812	1396.273193359375	1114.90185546875	533.3633422851562	1343.821044921875	1095.998413085938	501.6782836914062	1538.014282226562	897.696533203125	511.3085632324219	1488.380004882812	877.5732421875	573.7544555664062	1407.823608398438	1061.445556640625	544.9345092773438	1553.5400390625	724.5738525390625	522.6800537109375	1566.309204101562	807.2853393554688	529.4111938476562	1506.727905273438	803.385986328125	573.8259887695312	1439.614013671875	1687.460083007812	338.5342102050781	1593.15966796875	1716.968627929688	201.0068206787109	1579.148559570312	1711.004272460938	347.2459716796875	1463.674560546875	1692.760131835938	175.6385040283203	1495.214111328125	941.0449829101562	67.75086212158203	1452.492797851562	942.1621704101562	450.6015319824219	1540.296630859375	978.1829223632812	402.0747375488281	1567.315185546875	969.640380859375	127.6746063232422	1513.3251953125	498.0868835449219	142.4103393554688	1519.141235351562	662.4058837890625	103.8777618408203	1427.28369140625	27.40135383605957	158.8267211914062	1449.778076171875	251.4724884033203	141.7432403564453	1631.143188476562	40.31412506103516	236.2176971435547	1555.23876953125	44.76654434204102	262.23974609375	1550.25048828125	34.34997940063477	152.5204010009766	1355.743041992188	40.44435119628906	201.1530456542969	1523.221557617188	501.5236511230469	407.9573974609375	1508.46435546875	789.420654296875	449.4238586425781	1396.20166015625	41.46189880371094	378.50244140625	1516.307495117188	354.9566650390625	394.3070983886719	1618.5732421875	40.95161056518555	360.4103393554688	1558.532592773438	44.89503860473633	314.6606750488281	1524.581176757812	38.31740188598633	414.4649963378906	1347.935913085938	40.80464172363281	317.2483520507812	
429	4.28	1337.716796875	1009.942993164062	319.0597839355469	1354.728881835938	1015.06884765625	186.4831848144531	1344.617553710938	1102.3037109375	248.4654846191406	1568.909790039062	1303.773315429688	262.1791687011719	1330.259765625	1228.167724609375	245.9400939941406	1362.2216796875	1503.2529296875	261.8689880371094	1542.718872070312	1413.943481445312	261.8300170898438	1294.6611328125	1374.938720703125	341.7323303222656	1336.44189453125	1449.933837890625	165.9982452392578	1437.859130859375	1480.474853515625	93.77716827392578	1450.894775390625	1355.051513671875	13.68384742736816	1519.118286132812	1142.00146484375	-3.541708946228027	1429.472534179688	1113.3466796875	35.02676010131836	1666.189086914062	936.5690307617188	68.93115997314453	1641.26220703125	900.7059326171875	-6.75252628326416	1564.311401367188	1064.944458007812	-3.340356111526489	1715.849487304688	773.2890014648438	71.33957672119141	1666.140502929688	846.3773803710938	5.200087547302246	1706.782470703125	867.6236572265625	55.55381011962891	1415.38671875	1468.144287109375	420.1411743164062	1395.199096679688	1402.57080078125	485.1357727050781	1397.370239257812	1114.958374023438	534.3863525390625	1344.941528320312	1096.112426757812	502.635986328125	1538.567138671875	897.2476196289062	512.782470703125	1488.807250976562	877.3892822265625	575.1845092773438	1408.797973632812	1061.318603515625	545.832763671875	1553.58349609375	724.1323852539062	524.4478149414062	1566.658569335938	806.813720703125	531.1226806640625	1506.92333984375	803.1173706054688	575.3667602539062	1441.094848632812	1687.376342773438	339.3612365722656	1594.628295898438	1716.927490234375	201.8414154052734	1580.640380859375	1711.015502929688	348.0850830078125	1465.138427734375	1692.588989257812	176.5286102294922	1496.930419921875	941.0673828125	68.91280364990234	1454.326904296875	941.9483032226562	451.0058898925781	1541.47802734375	977.8904418945312	403.2084350585938	1569.062744140625	969.611572265625	128.8539123535156	1514.083740234375	498.0245971679688	143.0844268798828	1520.321655273438	662.2891235351562	104.51171875	1427.238037109375	27.42167854309082	158.8600769042969	1450.086303710938	251.4868469238281	142.0016326904297	1631.107788085938	40.31664657592773	236.2545013427734	1555.240112304688	44.80134201049805	262.2871398925781	1550.217529296875	34.37164688110352	152.6460113525391	1355.692749023438	40.4509391784668	201.1364440917969	1522.023681640625	500.9977416992188	407.9772033691406	1509.515625	788.8392333984375	449.8350524902344	1396.103271484375	41.19690322875977	378.2783813476562	1515.352294921875	354.564697265625	394.11767578125	1618.577270507812	40.93292617797852	360.371337890625	1558.519775390625	44.69886779785156	314.4547424316406	1524.57421875	38.40301513671875	414.2718200683594	1347.797607421875	40.19326019287109	316.9180908203125	
430	4.29	1338.984130859375	1009.996704101562	319.7032775878906	1356.198852539062	1015.18212890625	187.1841888427734	1345.853759765625	1102.06640625	249.2436065673828	1570.39453125	1303.644897460938	263.231689453125	1331.75830078125	1228.195556640625	246.6941680908203	1363.776123046875	1503.255981445312	262.6876525878906	1544.251831054688	1413.836181640625	262.7923583984375	1296.089233398438	1374.980224609375	342.5133972167969	1338.061279296875	1449.908569335938	166.8787536621094	1439.529541015625	1480.34228515625	94.63938140869141	1452.007080078125	1354.785522460938	14.47064685821533	1518.295043945312	1141.08984375	-2.695554971694946	1428.42626953125	1113.473999023438	36.09903717041016	1662.689697265625	933.475830078125	69.16831970214844	1637.147583007812	898.1455688476562	-6.609843730926514	1562.482788085938	1063.415649414062	-2.674302816390991	1710.024780273438	769.470703125	71.20953369140625	1661.279052734375	843.4844970703125	5.196324348449707	1702.275146484375	863.9380493164062	55.6101188659668	1416.765014648438	1468.156860351562	420.9571533203125	1396.435424804688	1402.610595703125	486.0300903320312	1398.392578125	1115.039916992188	535.3869018554688	1345.999389648438	1096.251098632812	503.5817565917969	1539.14208984375	896.8900756835938	514.219970703125	1489.230834960938	877.2560424804688	576.5801391601562	1409.635864257812	1061.185791015625	546.6497192382812	1553.714965820312	723.7571411132812	526.203369140625	1567.03466796875	806.4209594726562	532.8085327148438	1507.139526367188	802.9037475585938	576.8604736328125	1442.574096679688	1687.323120117188	340.1879577636719	1596.096435546875	1716.879150390625	202.6728057861328	1582.147705078125	1711.040283203125	348.9082946777344	1466.6025390625	1692.423706054688	177.4144134521484	1498.594970703125	941.0967407226562	70.05550384521484	1455.731811523438	941.7913818359375	451.5589599609375	1542.576171875	977.6094970703125	404.3184509277344	1570.757446289062	969.588134765625	130.0158386230469	1514.830810546875	497.9706115722656	143.7328796386719	1521.46337890625	662.1920776367188	105.1172027587891	1427.186279296875	27.45582962036133	158.8851318359375	1450.401123046875	251.5053405761719	142.2352294921875	1631.075073242188	40.31826782226562	236.2889251708984	1555.239135742188	44.83366012573242	262.3309020996094	1550.182373046875	34.38476181030273	152.7633514404297	1355.641845703125	40.49021148681641	201.0949554443359	1520.91552734375	500.5290832519531	408.0070190429688	1510.031372070312	788.3563232421875	450.4294738769531	1396.014770507812	40.96241760253906	378.0716857910156	1514.45849609375	354.2254638671875	393.9497375488281	1618.5830078125	40.91584777832031	360.334716796875	1558.514038085938	44.53292083740234	314.2724914550781	1524.56884765625	38.48933410644531	414.080810546875	1347.667358398438	39.66585159301758	316.5927124023438	
431	4.3	1340.176391601562	1010.070373535156	320.3383178710938	1357.593872070312	1015.311828613281	187.8509216308594	1347.11474609375	1101.870483398438	250.0259704589844	1571.830078125	1303.524169921875	264.2852172851562	1333.1611328125	1228.248168945312	247.4492645263672	1365.308349609375	1503.285278320312	263.4988708496094	1545.753295898438	1413.740966796875	263.7588500976562	1297.46533203125	1375.053588867188	343.281982421875	1339.6611328125	1449.908569335938	167.7549743652344	1441.191162109375	1480.2373046875	95.50808715820312	1453.114013671875	1354.553588867188	15.27664852142334	1517.430053710938	1140.220581054688	-1.832749605178833	1427.345825195312	1113.65185546875	37.19461822509766	1658.961181640625	930.2845458984375	69.33668518066406	1632.802368164062	895.587890625	-6.564208984375	1560.561645507812	1061.917724609375	-2.01783561706543	1703.811889648438	765.5514526367188	70.93714141845703	1656.127685546875	840.5809936523438	5.07935094833374	1697.484008789062	860.165283203125	55.56270217895508	1418.08837890625	1468.192016601562	421.7601623535156	1397.613647460938	1402.688720703125	486.9242248535156	1399.338500976562	1115.148559570312	536.3646240234375	1346.994140625	1096.420166015625	504.5123596191406	1539.731079101562	896.6299438476562	515.6304321289062	1489.64208984375	877.1812744140625	577.9378051757812	1410.351684570312	1061.068237304688	547.4091186523438	1553.943237304688	723.449951171875	527.9380493164062	1567.422607421875	806.113037109375	534.4473876953125	1507.384033203125	802.75927734375	578.3018798828125	1444.0537109375	1687.305786132812	341.0166320800781	1597.562377929688	1716.826538085938	203.4962310791016	1583.673217773438	1711.081665039062	349.7095336914062	1468.065795898438	1692.27392578125	178.2898254394531	1500.188354492188	941.1202392578125	71.15380096435547	1456.7607421875	941.6741333007812	452.2434997558594	1543.59912109375	977.353271484375	405.3930053710938	1572.38134765625	969.5577392578125	131.136474609375	1515.564819335938	497.9249877929688	144.3560943603516	1522.561157226562	662.1123046875	105.6969299316406	1427.140258789062	27.50813484191895	158.8987121582031	1450.721313476562	251.5364685058594	142.443359375	1631.044555664062	40.31903839111328	236.3200378417969	1555.236938476562	44.86161041259766	262.3713684082031	1550.146240234375	34.39145660400391	152.8702239990234	1355.593139648438	40.5535888671875	201.0382843017578	1519.905395507812	500.1228332519531	408.0691833496094	1509.992919921875	787.99560546875	451.2168579101562	1395.934692382812	40.74326705932617	377.8986511230469	1513.637939453125	353.9403381347656	393.8255310058594	1618.586547851562	40.90227127075195	360.3018188476562	1558.512817382812	44.40351867675781	314.1236267089844	1524.560180664062	38.56485366821289	413.9104919433594	1347.551879882812	39.20882797241211	316.287841796875	
